<svg xmlns="http://www.w3.org/2000/svg" xmlns:xlink="http://www.w3.org/1999/xlink" width="400" zoomAndPan="magnify" viewBox="0 0 300 374.999991" height="500" preserveAspectRatio="xMidYMid meet" version="1.0"><defs><clipPath id="id1"><path d="M 6.066406 43.566406 L 294.066406 43.566406 L 294.066406 331.566406 L 6.066406 331.566406 Z M 6.066406 43.566406 " clip-rule="nonzero"/></clipPath></defs><g clip-path="url(#id1)"><path fill="#f6f6f6" d="M 282.402344 263.367188 C 278.71875 259.683594 274.453125 256.800781 269.730469 254.785156 C 264.835938 252.714844 259.59375 251.617188 254.238281 251.617188 C 248.878906 251.617188 243.636719 252.65625 238.742188 254.785156 C 234.019531 256.800781 229.757812 259.683594 226.070312 263.367188 C 222.382812 267.054688 219.5625 271.316406 217.546875 276.039062 C 215.933594 279.84375 214.953125 283.875 214.550781 287.964844 L 160.464844 287.964844 C 160.175781 285.832031 159.601562 283.703125 158.734375 281.6875 C 157.46875 278.691406 155.625 275.925781 153.320312 273.621094 C 151.019531 271.316406 148.3125 269.472656 145.257812 268.207031 C 142.148438 266.882812 138.804688 266.191406 135.40625 266.191406 C 132.007812 266.191406 128.667969 266.882812 125.558594 268.207031 C 122.5625 269.472656 119.855469 271.316406 117.496094 273.621094 C 115.191406 275.925781 113.347656 278.691406 112.082031 281.6875 C 111.214844 283.703125 110.640625 285.773438 110.351562 287.964844 L 61.621094 287.964844 C 35.011719 287.964844 13.355469 266.25 13.355469 239.582031 C 13.355469 212.910156 35.011719 191.195312 61.621094 191.195312 L 72.738281 191.195312 C 73.027344 193.328125 73.601562 195.457031 74.46875 197.472656 C 75.734375 200.46875 77.578125 203.234375 79.882812 205.539062 C 82.1875 207.84375 84.894531 209.6875 87.945312 210.953125 C 91.054688 212.277344 94.398438 212.96875 97.796875 212.96875 C 101.195312 212.96875 104.535156 212.277344 107.644531 210.953125 C 110.640625 209.6875 113.347656 207.84375 115.707031 205.539062 C 118.070312 203.234375 119.855469 200.46875 121.125 197.472656 C 121.988281 195.457031 122.5625 193.386719 122.851562 191.195312 L 175.324219 191.195312 C 175.613281 193.328125 176.1875 195.457031 177.054688 197.472656 C 178.320312 200.46875 180.164062 203.234375 182.46875 205.539062 C 184.769531 207.84375 187.480469 209.6875 190.53125 210.953125 C 193.640625 212.277344 196.984375 212.96875 200.382812 212.96875 C 203.78125 212.96875 207.121094 212.277344 210.230469 210.953125 C 213.226562 209.6875 215.933594 207.84375 218.292969 205.539062 C 220.597656 203.234375 222.441406 200.46875 223.707031 197.472656 C 224.574219 195.457031 225.148438 193.386719 225.4375 191.195312 L 238.570312 191.195312 C 246.058594 191.195312 253.316406 189.699219 260.167969 186.820312 C 266.792969 183.996094 272.726562 180.023438 277.796875 174.894531 C 282.863281 169.769531 286.894531 163.835938 289.660156 157.210938 C 292.539062 150.359375 294.039062 143.042969 294.039062 135.554688 C 294.039062 128.066406 292.597656 120.75 289.660156 113.898438 C 286.839844 107.273438 282.863281 101.339844 277.796875 96.214844 C 272.726562 91.085938 266.734375 87.113281 260.167969 84.289062 C 253.316406 81.410156 246.058594 79.914062 238.570312 79.914062 L 187.824219 79.914062 C 187.535156 77.78125 186.960938 75.652344 186.097656 73.632812 C 184.828125 70.640625 182.984375 67.875 180.683594 65.570312 C 178.378906 63.265625 175.671875 61.421875 172.617188 60.15625 C 169.507812 58.832031 166.167969 58.140625 162.769531 58.140625 C 159.371094 58.140625 156.027344 58.832031 152.917969 60.15625 C 149.921875 61.421875 147.214844 63.265625 144.855469 65.570312 C 142.550781 67.875 140.707031 70.640625 139.441406 73.632812 C 138.574219 75.652344 138 77.722656 137.710938 79.914062 L 85.699219 79.914062 C 85.355469 75.824219 84.316406 71.792969 82.703125 67.988281 C 80.6875 63.207031 77.808594 58.945312 74.179688 55.316406 C 70.492188 51.632812 66.230469 48.75 61.507812 46.734375 C 56.554688 44.605469 51.3125 43.566406 45.957031 43.566406 C 40.597656 43.566406 35.355469 44.605469 30.460938 46.734375 C 25.738281 48.75 21.476562 51.632812 17.789062 55.316406 C 14.101562 59.003906 11.28125 63.265625 9.265625 67.988281 C 7.132812 72.886719 6.097656 78.128906 6.097656 83.542969 C 6.097656 88.957031 7.132812 94.140625 9.207031 99.09375 C 11.222656 103.875 14.101562 108.136719 17.730469 111.765625 C 21.417969 115.453125 25.679688 118.332031 30.402344 120.347656 C 35.300781 122.421875 40.539062 123.515625 45.898438 123.515625 C 51.253906 123.515625 56.496094 122.480469 61.390625 120.347656 C 66.117188 118.332031 70.378906 115.453125 74.0625 111.765625 C 77.75 108.078125 80.574219 103.816406 82.589844 99.09375 C 84.203125 95.292969 85.179688 91.261719 85.585938 87.171875 L 137.597656 87.171875 C 137.886719 89.300781 138.460938 91.433594 139.324219 93.449219 C 140.59375 96.445312 142.433594 99.207031 144.738281 101.511719 C 147.042969 103.816406 149.75 105.660156 152.804688 106.925781 C 155.914062 108.253906 159.253906 108.941406 162.652344 108.941406 C 166.050781 108.941406 169.390625 108.253906 172.503906 106.925781 C 175.496094 105.660156 178.203125 103.816406 180.566406 101.511719 C 182.871094 99.207031 184.714844 96.445312 185.980469 93.449219 C 186.84375 91.433594 187.421875 89.359375 187.707031 87.171875 L 238.453125 87.171875 C 265.066406 87.171875 286.722656 108.886719 286.722656 135.554688 C 286.722656 162.222656 265.066406 183.9375 238.453125 183.9375 L 225.320312 183.9375 C 225.035156 181.808594 224.457031 179.675781 223.59375 177.660156 C 222.328125 174.664062 220.484375 171.898438 218.179688 169.597656 C 215.875 167.292969 213.167969 165.449219 210.117188 164.183594 C 207.003906 162.855469 203.664062 162.164062 200.265625 162.164062 C 196.867188 162.164062 193.527344 162.855469 190.417969 164.183594 C 187.421875 165.449219 184.714844 167.292969 182.351562 169.597656 C 180.046875 171.898438 178.203125 174.664062 176.9375 177.660156 C 176.074219 179.675781 175.496094 181.75 175.210938 183.9375 L 122.734375 183.9375 C 122.449219 181.808594 121.871094 179.675781 121.007812 177.660156 C 119.742188 174.664062 117.898438 171.898438 115.59375 169.597656 C 113.289062 167.292969 110.582031 165.449219 107.53125 164.183594 C 104.417969 162.855469 101.078125 162.164062 97.679688 162.164062 C 94.28125 162.164062 90.941406 162.855469 87.832031 164.183594 C 84.835938 165.449219 82.128906 167.292969 79.765625 169.597656 C 77.460938 171.898438 75.621094 174.664062 74.351562 177.660156 C 73.488281 179.675781 72.914062 181.75 72.625 183.9375 L 61.621094 183.9375 C 54.132812 183.9375 46.875 185.4375 40.023438 188.316406 C 33.398438 191.136719 27.464844 195.113281 22.398438 200.238281 C 17.328125 205.367188 13.296875 211.296875 10.53125 217.921875 C 7.652344 224.777344 6.152344 232.09375 6.152344 239.582031 C 6.152344 247.066406 7.59375 254.382812 10.53125 261.238281 C 13.355469 267.863281 17.328125 273.792969 22.398438 278.921875 C 27.464844 284.046875 33.457031 288.023438 40.023438 290.84375 C 46.875 293.722656 54.132812 295.222656 61.621094 295.222656 L 110.351562 295.222656 C 110.640625 297.351562 111.214844 299.484375 112.082031 301.5 C 113.347656 304.496094 115.191406 307.261719 117.496094 309.5625 C 119.796875 311.867188 122.503906 313.710938 125.558594 314.980469 C 128.667969 316.304688 132.007812 316.996094 135.40625 316.996094 C 138.804688 316.996094 142.148438 316.304688 145.257812 314.980469 C 148.253906 313.710938 150.960938 311.867188 153.320312 309.5625 C 155.625 307.261719 157.46875 304.496094 158.734375 301.5 C 159.601562 299.484375 160.175781 297.410156 160.464844 295.222656 L 214.550781 295.222656 C 214.894531 299.3125 215.933594 303.34375 217.546875 307.144531 C 219.5625 311.925781 222.441406 316.1875 226.070312 319.816406 C 229.699219 323.445312 234.019531 326.382812 238.742188 328.398438 C 243.636719 330.472656 248.878906 331.566406 254.238281 331.566406 C 259.59375 331.566406 264.835938 330.53125 269.730469 328.398438 C 274.453125 326.382812 278.71875 323.503906 282.402344 319.816406 C 286.089844 316.128906 288.914062 311.867188 290.929688 307.144531 C 293 302.191406 294.039062 297.007812 294.039062 291.59375 C 294.039062 286.179688 293 280.996094 290.929688 276.039062 C 288.96875 271.316406 286.089844 266.996094 282.402344 263.367188 Z M 45.957031 116.257812 C 27.984375 116.257812 13.296875 101.570312 13.296875 83.542969 C 13.296875 65.457031 27.984375 50.824219 45.957031 50.824219 C 63.925781 50.824219 78.613281 65.511719 78.613281 83.542969 C 78.613281 101.570312 63.984375 116.257812 45.957031 116.257812 Z M 162.769531 101.6875 C 152.804688 101.6875 144.683594 93.5625 144.683594 83.542969 C 144.683594 73.519531 152.804688 65.398438 162.769531 65.398438 C 172.734375 65.398438 180.855469 73.519531 180.855469 83.542969 C 180.855469 93.5625 172.734375 101.6875 162.769531 101.6875 Z M 200.382812 169.421875 C 210.347656 169.421875 218.46875 177.546875 218.46875 187.566406 C 218.46875 197.589844 210.347656 205.710938 200.382812 205.710938 C 190.417969 205.710938 182.292969 197.589844 182.292969 187.566406 C 182.292969 177.546875 190.417969 169.421875 200.382812 169.421875 Z M 97.796875 169.421875 C 107.761719 169.421875 115.882812 177.546875 115.882812 187.566406 C 115.882812 197.589844 107.761719 205.710938 97.796875 205.710938 C 87.832031 205.710938 79.707031 197.589844 79.707031 187.566406 C 79.707031 177.546875 87.773438 169.421875 97.796875 169.421875 Z M 135.40625 309.738281 C 125.441406 309.738281 117.320312 301.617188 117.320312 291.59375 C 117.320312 281.570312 125.441406 273.449219 135.40625 273.449219 C 145.371094 273.449219 153.496094 281.570312 153.496094 291.59375 C 153.496094 301.617188 145.371094 309.738281 135.40625 309.738281 Z M 254.238281 324.308594 C 236.265625 324.308594 221.578125 309.621094 221.578125 291.59375 C 221.578125 273.5625 236.207031 258.875 254.238281 258.875 C 272.207031 258.875 286.894531 273.5625 286.894531 291.59375 C 286.894531 309.679688 272.207031 324.308594 254.238281 324.308594 Z M 254.238281 324.308594 " fill-opacity="1" fill-rule="nonzero"/></g><path fill="#f6f6f6" d="M 254.238281 266.710938 C 247.613281 266.710938 241.390625 269.300781 236.667969 274.023438 C 231.945312 278.75 229.410156 284.96875 229.410156 291.59375 C 229.410156 298.21875 232.003906 304.496094 236.667969 309.160156 C 241.335938 313.882812 247.613281 316.476562 254.238281 316.476562 C 260.859375 316.476562 267.082031 313.882812 271.804688 309.160156 C 276.46875 304.4375 279.0625 298.21875 279.0625 291.59375 C 279.0625 284.96875 276.46875 278.691406 271.804688 274.023438 C 267.082031 269.300781 260.859375 266.710938 254.238281 266.710938 Z M 254.238281 309.277344 C 244.558594 309.277344 236.613281 301.386719 236.613281 291.652344 C 236.613281 281.917969 244.503906 274.023438 254.238281 274.023438 C 263.914062 274.023438 271.863281 281.917969 271.863281 291.652344 C 271.863281 301.328125 263.914062 309.277344 254.238281 309.277344 Z M 254.238281 309.277344 " fill-opacity="1" fill-rule="nonzero"/><path fill="#f6f6f6" d="M 263.28125 291.59375 C 263.28125 292.191406 263.222656 292.78125 263.105469 293.367188 C 262.992188 293.953125 262.820312 294.523438 262.589844 295.074219 C 262.363281 295.628906 262.085938 296.152344 261.757812 296.648438 C 261.425781 297.144531 261.050781 297.605469 260.632812 298.027344 C 260.210938 298.449219 259.753906 298.828125 259.261719 299.160156 C 258.765625 299.492188 258.246094 299.773438 257.699219 300 C 257.148438 300.230469 256.582031 300.402344 256 300.519531 C 255.417969 300.636719 254.832031 300.695312 254.238281 300.695312 C 253.644531 300.695312 253.054688 300.636719 252.472656 300.519531 C 251.890625 300.402344 251.324219 300.230469 250.777344 300 C 250.226562 299.773438 249.707031 299.492188 249.210938 299.160156 C 248.71875 298.828125 248.261719 298.449219 247.84375 298.027344 C 247.421875 297.605469 247.046875 297.144531 246.71875 296.648438 C 246.386719 296.152344 246.109375 295.628906 245.882812 295.074219 C 245.65625 294.523438 245.484375 293.953125 245.367188 293.367188 C 245.25 292.78125 245.195312 292.191406 245.195312 291.59375 C 245.195312 290.996094 245.25 290.402344 245.367188 289.816406 C 245.484375 289.230469 245.65625 288.664062 245.882812 288.109375 C 246.109375 287.558594 246.386719 287.035156 246.71875 286.535156 C 247.046875 286.039062 247.421875 285.582031 247.84375 285.15625 C 248.261719 284.734375 248.71875 284.359375 249.210938 284.027344 C 249.707031 283.695312 250.226562 283.414062 250.777344 283.183594 C 251.324219 282.957031 251.890625 282.785156 252.472656 282.667969 C 253.054688 282.550781 253.644531 282.492188 254.238281 282.492188 C 254.832031 282.492188 255.417969 282.550781 256 282.667969 C 256.582031 282.785156 257.148438 282.957031 257.699219 283.183594 C 258.246094 283.414062 258.765625 283.695312 259.261719 284.027344 C 259.753906 284.359375 260.210938 284.734375 260.632812 285.15625 C 261.050781 285.582031 261.425781 286.039062 261.757812 286.535156 C 262.085938 287.035156 262.363281 287.558594 262.589844 288.109375 C 262.820312 288.664062 262.992188 289.230469 263.105469 289.816406 C 263.222656 290.402344 263.28125 290.996094 263.28125 291.59375 Z M 263.28125 291.59375 " fill-opacity="1" fill-rule="nonzero"/><path fill="#f6f6f6" d="M 46.761719 76.226562 L 30.804688 76.226562 L 30.804688 90.800781 L 46.761719 90.800781 L 46.761719 97.769531 L 67.957031 83.542969 L 46.761719 69.257812 Z M 46.761719 76.226562 " fill-opacity="1" fill-rule="nonzero"/></svg>